HIERARCHY
ROOT Hips
{
	OFFSET 0.000000 0.000000 0.000000
	CHANNELS 6 Xposition Yposition Zposition Zrotation Yrotation Xrotation 
	JOINT LHipJoint
	{
		OFFSET 0.000000 0.000000 0.000000
		CHANNELS 3 Zrotation Yrotation Xrotation
		JOINT LeftUpLeg
		{
			OFFSET 1.363060 -1.794630 0.839290
			CHANNELS 3 Zrotation Yrotation Xrotation
			JOINT LeftLeg
			{
				OFFSET 2.448110 -6.726130 0.000000
				CHANNELS 3 Zrotation Yrotation Xrotation
				JOINT LeftFoot
				{
					OFFSET 2.562200 -7.039590 0.000000
					CHANNELS 3 Zrotation Yrotation Xrotation
					JOINT LeftToeBase
					{
						OFFSET 0.157640 -0.433110 2.322550
						CHANNELS 3 Zrotation Yrotation Xrotation
						End Site
						{
							OFFSET 0.000000 0.000000 0.000000
						}
					}
				}
			}
		}
	}
	JOINT RHipJoint
	{
		OFFSET 0.000000 0.000000 0.000000
		CHANNELS 3 Zrotation Yrotation Xrotation
		JOINT RightUpLeg
		{
			OFFSET -1.305520 -1.794630 0.839290
			CHANNELS 3 Zrotation Yrotation Xrotation
			JOINT RightLeg
			{
				OFFSET -2.542530 -6.985550 0.000000
				CHANNELS 3 Zrotation Yrotation Xrotation
				JOINT RightFoot
				{
					OFFSET -2.568260 -7.056230 0.000000
					CHANNELS 3 Zrotation Yrotation Xrotation
					JOINT RightToeBase
					{
						OFFSET -0.164730 -0.452590 2.363150
						CHANNELS 3 Zrotation Yrotation Xrotation
						End Site
						{
							OFFSET 0.000000 0.000000 0.000000
						}
					}
				}
			}
		}
	}
	JOINT LowerBack
	{
		OFFSET 0.000000 0.000000 0.000000
		CHANNELS 3 Zrotation Yrotation Xrotation
		JOINT Spine
		{
			OFFSET 0.028270 2.035590 -0.193380
			CHANNELS 3 Zrotation Yrotation Xrotation
			JOINT Spine1
			{
				OFFSET 0.056720 2.048850 -0.042750
				CHANNELS 3 Zrotation Yrotation Xrotation
				JOINT Neck
				{
					OFFSET 0.000000 0.000000 0.000000
					CHANNELS 3 Zrotation Yrotation Xrotation
					JOINT Neck1
					{
						OFFSET -0.054170 1.746240 0.172020
						CHANNELS 3 Zrotation Yrotation Xrotation
						JOINT Head
						{
							OFFSET 0.104070 1.761360 -0.123970
							CHANNELS 3 Zrotation Yrotation Xrotation
							End Site
							{
								OFFSET 0.000000 0.000000 0.000000
							}
						}
					}
				}
				JOINT LeftShoulder
				{
					OFFSET 0.000000 0.000000 0.000000
					CHANNELS 3 Zrotation Yrotation Xrotation
					JOINT LeftArm
					{
						OFFSET 3.362410 1.200890 -0.311210
						CHANNELS 3 Zrotation Yrotation Xrotation
						JOINT LeftForeArm
						{
							OFFSET 4.983000 -0.000000 -0.000000
							CHANNELS 3 Zrotation Yrotation Xrotation
							JOINT LeftHand
							{
								OFFSET 3.483560 -0.000000 -0.000000
								CHANNELS 3 Zrotation Yrotation Xrotation
								JOINT LeftFingerBase
								{
									OFFSET 0.000000 0.000000 0.000000
									CHANNELS 3 Zrotation Yrotation Xrotation
									JOINT LeftHandIndex1
									{
										OFFSET 0.715260 -0.000000 -0.000000
										CHANNELS 3 Zrotation Yrotation Xrotation
										End Site
										{
											OFFSET 0.000000 0.000000 0.000000
										}
									}
								}
								JOINT LThumb
								{
									OFFSET 0.000000 0.000000 0.000000
									CHANNELS 3 Zrotation Yrotation Xrotation
									End Site
									{
										OFFSET 0.000000 0.000000 0.000000
									}
								}
							}
						}
					}
				}
				JOINT RightShoulder
				{
					OFFSET 0.000000 0.000000 0.000000
					CHANNELS 3 Zrotation Yrotation Xrotation
					JOINT RightArm
					{
						OFFSET -3.136600 1.374050 -0.404650
						CHANNELS 3 Zrotation Yrotation Xrotation
						JOINT RightForeArm
						{
							OFFSET -5.241900 -0.000000 -0.000000
							CHANNELS 3 Zrotation Yrotation Xrotation
							JOINT RightHand
							{
								OFFSET -3.444170 -0.000000 -0.000000
								CHANNELS 3 Zrotation Yrotation Xrotation
								JOINT RightFingerBase
								{
									OFFSET 0.000000 0.000000 0.000000
									CHANNELS 3 Zrotation Yrotation Xrotation
									JOINT RightHandIndex1
									{
										OFFSET -0.622530 -0.000000 -0.000000
										CHANNELS 3 Zrotation Yrotation Xrotation
										End Site
										{
											OFFSET 0.000000 0.000000 0.000000
										}
									}
								}
								JOINT RThumb
								{
									OFFSET 0.000000 0.000000 0.000000
									CHANNELS 3 Zrotation Yrotation Xrotation
									End Site
									{
										OFFSET 0.000000 0.000000 0.000000
									}
								}
							}
						}
					}
				}
			}
		}
	}
}
MOTION
Frames: 8
Frame Time: 0.008333
11.156907 14.320193 19.384324 30.127645 -18.701662 118.463780 -34.006081 -15.897477 -12.132260 -0.535746 38.108954 -34.545158 -28.832061 -10.117369 -2.055143 4.742176 17.525529 58.799810 0.341200 -3.753700 -10.384600 11.439398 15.584800 -3.059760 -30.228685 36.389469 -26.436783 4.933386 36.664046 42.571025 -33.277512 -25.031575 76.035963 -0.312900 3.596000 -9.942800 32.044735 -34.520294 -0.402784 -25.919385 -56.498838 -40.988596 6.815618 24.680941 -0.998219 -0.664196 -9.729694 -15.109078 -5.964535 1.664225 16.861369 -0.082900 -0.138100 17.825600 62.154696 26.994115 -15.997815 42.597948 -11.467080 -114.445791 -2.034164 -10.853916 -0.917556 1.866377 1.516369 18.829942 -1.797394 -2.201442 0.227200 -7.125000 0.000000 0.000000 -21.982300 25.575700 11.135500 -56.439780 1.362061 -4.435084 -27.653824 -4.299967 -90.286680 5.996144 2.720013 -1.614543 16.141311 -3.522014 38.914843 -23.756302 -15.996295 16.552100 7.125000 0.000000 0.000000 -10.850400 -56.913600 3.193500 
11.153859 14.311340 19.408995 30.234749 -18.388042 117.882820 -35.304859 -16.094915 -11.144626 3.926146 37.308848 -36.674900 -36.047882 -11.629797 -0.876570 6.723400 16.803406 59.436907 0.303400 -3.541700 -9.790800 8.408859 12.440430 -2.402766 -24.669081 36.871563 -27.849109 -0.783789 38.469720 41.426500 -35.812788 -25.980342 74.429983 -0.014400 0.774900 -2.129700 35.826127 -32.555510 0.044760 -34.465985 -61.864202 -46.428189 9.604907 17.651714 6.099036 3.602248 -7.120039 -17.686510 -6.938307 2.194732 16.086132 0.096400 -0.176900 18.052200 58.898799 29.643130 -15.418151 44.593007 -5.480876 -112.606546 -1.636407 -3.904860 -0.848752 0.978702 2.385840 18.760595 -1.613560 -2.450562 0.155300 -7.125000 0.000000 0.000000 -20.929800 24.865600 10.899300 -53.435030 11.642099 -2.077244 -32.382266 -8.798296 -91.725695 4.637414 1.857230 -1.664685 16.358930 -3.867314 38.557336 -23.092067 -16.019978 16.298000 7.125000 0.000000 0.000000 -10.559000 -56.650000 3.038900 
11.151392 14.301472 19.430909 29.561787 -18.165430 116.543530 -37.264190 -17.470350 -9.372205 10.611762 36.661136 -37.831520 -46.727441 -14.286738 3.770342 8.482355 16.150942 62.939108 0.208600 -2.940500 -8.113000 5.806839 9.569663 -0.888598 -19.843375 34.099585 -29.897360 -4.408582 36.041069 39.590269 -37.075836 -27.316685 72.905799 -0.139800 -2.409500 6.638800 40.382870 -31.807745 -0.583984 -44.970355 -68.094824 -48.201690 14.661644 15.842394 12.285681 8.187206 -5.089918 -21.331525 -6.376265 2.388365 15.389609 0.256000 -0.215100 18.270300 54.206642 34.249509 -15.166669 45.931027 -5.843733 -111.216631 -4.482573 0.680234 -0.782583 0.027148 2.847640 18.898826 -1.609456 -3.116947 0.072600 -7.125000 0.000000 0.000000 -20.057100 24.130700 10.751800 -49.266516 24.675179 1.971491 -32.025255 -8.321076 -93.331100 0.530450 -1.691491 -1.667838 16.237124 -4.285747 37.942422 -22.700057 -16.439085 16.134000 7.125000 0.000000 0.000000 -10.353700 -56.489800 2.938600 
11.149651 14.290442 19.441068 26.995276 -16.490539 114.325565 -41.244575 -21.459140 -7.307421 21.245534 35.237228 -36.795877 -59.430011 -19.489092 19.325003 8.793651 14.077217 70.714461 0.141600 -2.425300 -6.682700 5.077830 9.220639 1.237760 -15.571198 30.892267 -31.282162 -6.073905 30.372361 38.343083 -36.890879 -28.638151 72.003817 -0.629100 -5.075100 14.122800 44.400193 -32.016794 -2.910123 -52.502786 -74.269586 -48.278355 18.016432 19.171366 17.496491 10.922541 -4.135410 -23.951479 -4.733685 2.362805 14.428354 0.429800 -0.254000 18.496000 48.746816 35.587615 -14.243267 48.595420 -8.442227 -110.365567 -7.508435 2.363026 -0.703909 -0.690276 3.091284 19.252582 -1.322130 -3.951357 -0.039900 -7.125000 0.000000 0.000000 -19.191000 23.361400 10.594900 -44.623190 35.567900 5.923089 -31.241710 -5.063422 -96.420924 -4.830560 -5.174113 -1.612713 15.620877 -4.657410 37.603623 -22.765361 -16.964917 15.932400 7.125000 0.000000 0.000000 -10.160800 -56.256200 2.825400 
11.147764 14.279413 19.455000 20.815604 -13.260632 112.072748 -41.852629 -34.282302 -2.576113 30.528589 15.267066 -33.232962 -55.336175 -24.825030 51.650849 8.962932 10.840786 77.012373 0.098200 -2.021000 -5.563700 5.821285 12.872402 2.265254 -12.360335 30.584046 -31.510618 -6.259617 26.613336 39.015399 -36.314898 -29.861822 72.127087 -1.122600 -6.730100 18.918300 43.350154 -30.601623 -8.550384 -52.622269 -83.809719 -43.707964 15.069604 25.464503 21.525614 11.699084 -4.253517 -23.817019 -2.613932 2.369726 13.335958 0.597100 -0.294900 18.725200 42.491466 33.201036 -12.792840 50.244578 -13.393439 -109.789156 -11.485159 -0.888126 -0.652192 -1.099984 2.969599 19.507450 -0.594837 -5.023309 -0.185600 -7.125000 0.000000 0.000000 -18.320900 22.593400 10.404000 -43.264319 42.056446 11.019237 -34.614010 -1.023635 -99.276422 -9.698333 -1.951505 -1.538072 14.857292 -4.786290 37.301740 -23.087865 -17.415989 15.750800 7.125000 0.000000 0.000000 -9.957400 -56.063100 2.721300 
11.146023 14.267658 19.469222 12.473956 -12.081816 111.234281 -32.068639 -49.174839 5.365007 19.953657 -24.258388 -34.680301 -9.618246 -26.654787 68.566832 15.538364 10.819412 73.928456 0.070000 -1.706400 -4.695100 5.424858 18.166950 1.101623 -11.392446 31.854265 -31.540062 -4.846381 25.134708 40.626248 -35.988886 -30.613709 73.217315 -1.460800 -7.638800 21.622300 36.030973 -27.394599 -12.791061 -46.608700 -85.479095 -32.793509 7.501010 27.496271 18.166791 8.215662 -5.238396 -25.552028 -2.011947 2.585139 12.355981 0.763700 -0.337000 18.957600 39.526551 31.850032 -12.900031 44.049817 -15.192774 -110.066855 -12.784431 -10.562081 -0.648528 -1.175494 2.293554 19.743849 0.615315 -6.508063 -0.359000 -7.125000 0.000000 0.000000 -17.476800 21.816200 10.203500 -45.398729 41.493269 11.341157 -41.409374 1.112400 -99.310131 -12.232209 4.045491 -1.475663 14.314005 -4.527405 37.183141 -23.486880 -17.405078 15.577100 7.125000 0.000000 0.000000 -9.763600 -55.877200 2.623500 
11.144426 14.255467 19.484315 11.427967 -15.327190 109.140756 -22.532881 -45.957135 6.426788 -1.786085 -32.332054 -39.780847 22.590943 -21.768510 52.241073 22.103014 12.142776 65.053487 0.053200 -1.488500 -4.093900 3.759658 19.026694 1.940771 -12.250418 31.468225 -30.123397 -3.167127 25.990037 41.617949 -36.100145 -30.952887 74.597603 -1.621300 -8.028300 22.800000 32.266923 -29.049329 -12.739001 -42.736867 -77.584260 -27.644525 4.559126 23.573265 10.820829 2.292682 -5.298166 -30.616818 -2.945301 2.891349 11.650819 0.929500 -0.380300 19.192400 40.859246 32.243028 -11.731603 34.714060 -11.709701 -109.944189 -6.070203 -15.750371 -0.658014 -0.907687 1.743262 19.925163 2.106294 -7.742463 -0.560800 -7.125000 0.000000 0.000000 -16.649700 21.039700 9.984400 -45.257526 35.768951 6.174656 -41.161364 0.758992 -99.279138 -10.021068 2.097646 -1.442853 14.351224 -4.087112 37.194394 -23.543295 -16.894033 15.404100 7.125000 0.000000 0.000000 -9.573900 -55.689400 2.528100 
11.142830 14.242841 19.500424 11.343156 -17.069581 107.988383 -18.750875 -42.543978 4.344432 -7.905297 -26.792809 -41.817547 25.221487 -18.759150 41.403522 24.968736 14.123424 62.035411 0.042400 -1.329000 -3.654700 3.062358 19.805593 2.512693 -13.153150 31.612117 -28.454287 -1.764638 29.078227 42.887723 -36.199722 -30.959414 75.995381 -1.622700 -8.031500 22.809700 31.298489 -31.413642 -11.411939 -33.669589 -64.397910 -30.599247 1.020830 17.780155 2.722973 -3.925946 -4.118832 -33.611793 -4.769236 3.232330 12.211753 1.092200 -0.423900 19.427400 40.415776 33.931252 -9.238078 27.022281 -8.718674 -109.037583 1.734270 -13.574185 -0.651497 -0.513031 1.802877 20.038662 3.505437 -8.343235 -0.790300 -7.125000 0.000000 0.000000 -15.839400 20.264800 9.747300 -43.928492 25.578704 2.900362 -35.927071 2.110884 -97.972218 -2.189339 -1.224476 -1.430759 14.969093 -3.650038 37.227681 -23.140022 -16.061200 15.238000 7.125000 0.000000 0.000000 -9.388500 -55.510600 2.437600 
